<svg width="32" height="32" viewBox="0 0 32 32" fill="none" xmlns="http://www.w3.org/2000/svg">
  <!-- Box base -->
  <rect x="4" y="8" width="24" height="20" rx="2" fill="#43D277" fill-opacity="0.2" stroke="#43D277" stroke-width="2"/>
  
  <!-- Box lid -->
  <path d="M6 8L13 4H19L26 8" stroke="#43D277" stroke-width="2" stroke-linejoin="round"/>
  
  <!-- Ribbon -->
  <path d="M16 8V28" stroke="#43D277" stroke-width="2"/>
  <path d="M4 16H28" stroke="#43D277" stroke-width="2"/>
  
  <!-- Sparkle -->
  <circle cx="16" cy="16" r="2" fill="#43D277"/>
  <path d="M16 12L17 14L16 16L15 14L16 12Z" fill="#43D277"/>
  <path d="M16 20L17 18L16 16L15 18L16 20Z" fill="#43D277"/>
  <path d="M12 16L14 17L16 16L14 15L12 16Z" fill="#43D277"/>
  <path d="M20 16L18 17L16 16L18 15L20 16Z" fill="#43D277"/>
</svg> 